<svg xmlns="http://www.w3.org/2000/svg" width="200" height="140" viewBox="0 0 200 140">
  <defs>
    <filter id="n" x="-20%" y="-20%" width="140%" height="140%">
      <feTurbulence type="fractalNoise" baseFrequency="0.08" numOctaves="2" seed="3" result="t"/>
      <feDisplacementMap in="SourceGraphic" in2="t" scale="6" xChannelSelector="R" yChannelSelector="G"/>
    </filter>
  </defs>
  <rect width="200" height="140" fill="#1a2418"/>
  <path fill="#3d5c2e" filter="url(#n)" d="M0 0h90v60L0 85zm110-5l90 45v95H95z"/>
  <path fill="#5c4a28" opacity="0.95" d="M20 90c35-20 55-5 80 25s50 20 95-10l5 35H0V75z"/>
  <path fill="#2a4a32" opacity="0.9" d="M130 0c25 30 40 28 70 10v50l-45 30-55-25z"/>
  <path fill="#6b5030" opacity="0.85" d="M0 40c30 15 48 8 62-22l38 18c-22 35-48 42-100 4z"/>
  <path fill="#1e3324" opacity="0.88" d="M85 55c28 18 52 12 75-8v93H60z"/>
</svg>
